<svg xmlns="http://www.w3.org/2000/svg" viewBox="0 0 174 48" fill="none" style="color:#0A0A0A"><path d="M48.7669 38.7431H30.3579C27.3643 38.7431 24.8436 40.7785 24.092 43.5575C24.0596 43.8837 24.0013 44.2098 23.9106 44.5099C23.6773 45.2993 23.2496 46.0038 22.6859 46.5648C21.8046 47.452 20.58 48 19.2387 48C8.59244 48.0065 -0.0580246 39.252 0.000293143 28.5208C0.0650906 17.8353 8.83219 9.26991 19.446 9.26991H39.4231C41.8465 9.02854 43.758 7.03887 43.8941 4.56646C43.8941 4.56646 43.8941 4.55341 43.8941 4.54689C43.8941 4.50122 43.8941 4.46208 43.8941 4.41642C44.0431 1.95053 46.0713 0 48.553 0C58.9984 0 67.7007 8.29791 67.9923 18.8073C68.2968 29.7407 59.5556 38.7301 48.7604 38.7301L48.7669 38.7431ZM50.5682 7.46942C50.5682 7.46942 50.5553 7.46942 50.5488 7.46942C50.2702 7.42376 49.9915 7.39114 49.7129 7.36504C49.7 7.36504 49.6805 7.36504 49.6676 7.36504C49.5574 7.36504 49.4472 7.35852 49.3306 7.35852C46.5897 7.35852 44.244 9.0742 43.2915 11.4944C43.2461 11.6445 43.1878 11.7945 43.1295 11.9445C43.1295 11.9445 43.1295 11.9445 43.1295 11.9511C42.0668 14.6583 39.449 16.5697 36.3776 16.5697H19.2387C12.5904 16.5697 7.19281 22.0495 7.25761 28.7556C7.32241 35.3966 12.7913 40.7002 19.3877 40.7002H20.1847C22.2971 40.5306 24.0337 39.0302 24.578 37.0405C24.5909 36.9818 24.6039 36.9165 24.6233 36.8578C24.6233 36.8578 24.6233 36.8513 24.6233 36.8448C25.4527 33.7331 28.2714 31.4368 31.6279 31.4368H48.7669C55.4151 31.4368 60.8127 25.9571 60.7479 19.2509C60.6896 13.2753 56.2575 8.38271 50.5618 7.4629L50.5682 7.46942Z" fill="currentColor"></path><path d="M82.7564 22V6.14651H95.4207V8.96593H86.2229V12.5018H94.3576V15.2981H86.2229V19.1575H95.5594V22H82.7564Z" fill="currentColor"></path><path d="M105.442 26.1136V20.6596H105.303C104.54 21.7458 103.315 22.2773 101.744 22.2773C98.9246 22.2773 96.9602 20.2899 96.9602 15.9452C96.9602 11.5311 98.8321 9.56679 101.86 9.56679C103.431 9.56679 104.795 10.1908 105.58 11.4849H105.742L106.019 9.84412H108.654V26.1136H105.442ZM102.876 19.6428C104.702 19.6428 105.465 18.3255 105.465 16.1069V15.7141C105.465 13.4955 104.679 12.2013 102.876 12.2013C100.935 12.2013 100.242 13.3337 100.242 15.6678V16.1994C100.242 18.4873 100.935 19.6428 102.876 19.6428Z" fill="currentColor"></path><path d="M114.857 22.2773C112.407 22.2773 110.835 21.0294 110.835 17.9789V9.84412H114.048V17.4473C114.048 19.0188 114.833 19.5966 116.128 19.5966C117.56 19.5966 118.647 18.4642 118.647 16.9158V9.84412H121.859V22H119.224L118.993 20.3361H118.832C117.976 21.4916 116.59 22.2773 114.857 22.2773Z" fill="currentColor"></path><path d="M124.114 8.06464V5.29144H127.326V8.06464H124.114ZM124.114 22V9.84412H127.326V22H124.114Z" fill="currentColor"></path><path d="M133.21 22.2773C130.899 22.2773 129.975 20.8907 129.975 19.1806V12.3169H128.473V9.84412H130.09L130.691 6.37761H133.187V9.84412H135.406V12.3169H133.187V18.649C133.187 19.3886 133.511 19.7814 134.273 19.7814H135.406V21.9076C134.874 22.0924 133.904 22.2773 133.21 22.2773Z" fill="currentColor"></path><path d="M142.311 22.2773C138.29 22.2773 136.187 20.2899 136.187 15.9221C136.187 11.5774 138.313 9.56679 142.242 9.56679C145.939 9.56679 147.927 11.4618 147.927 15.8065V16.6385H139.445C139.515 18.7877 140.3 19.897 142.311 19.897C143.79 19.897 144.784 19.1575 144.784 17.7015H147.927C147.927 20.7752 145.639 22.2773 142.311 22.2773ZM139.492 14.6048H144.622C144.622 12.7329 143.698 11.9471 142.288 11.9471C140.508 11.9471 139.7 12.8253 139.492 14.6048Z" fill="currentColor"></path><path d="M154.929 22.2773C151.023 22.2773 148.989 20.2667 148.989 15.9221C148.989 11.5774 151.069 9.54368 154.929 9.54368C158.257 9.54368 160.429 11.1383 160.429 14.4661H157.217C157.217 12.8253 156.454 12.0165 154.882 12.0165C153.057 12.0165 152.248 13.2644 152.248 15.6678V16.1994C152.248 18.5797 153.034 19.8045 154.998 19.8045C156.523 19.8045 157.378 18.9726 157.378 17.3549H160.429C160.429 20.5441 158.28 22.2773 154.929 22.2773Z" fill="currentColor"></path><path d="M162.145 22V5.29144H165.357V11.1845H165.519C166.304 10.237 167.552 9.56679 169.17 9.56679C171.597 9.56679 173.168 10.8147 173.168 13.8653V22H169.956V14.3737C169.956 12.8253 169.17 12.2245 167.876 12.2245C166.443 12.2245 165.357 13.3568 165.357 14.9052V22H162.145Z" fill="currentColor"></path><path d="M82.7564 43V27.1465H94.4501V29.9659H86.1998V33.8946H93.5719V36.691H86.1998V43H82.7564Z" fill="currentColor"></path><path d="M100.091 43.2773C97.6409 43.2773 96.0694 42.0294 96.0694 38.9789V30.8441H99.2817V38.4473C99.2817 40.0188 100.067 40.5966 101.362 40.5966C102.794 40.5966 103.881 39.4642 103.881 37.9158V30.8441H107.093V43H104.458L104.227 41.3361H104.065C103.21 42.4916 101.824 43.2773 100.091 43.2773Z" fill="currentColor"></path><path d="M112.976 43.2773C110.665 43.2773 109.741 41.8907 109.741 40.1806V33.3169H108.239V30.8441H109.857L110.457 27.3776H112.953V30.8441H115.172V33.3169H112.953V39.649C112.953 40.3886 113.277 40.7814 114.039 40.7814H115.172V42.9076C114.64 43.0924 113.67 43.2773 112.976 43.2773Z" fill="currentColor"></path><path d="M120.482 43.2773C118.033 43.2773 116.461 42.0294 116.461 38.9789V30.8441H119.674V38.4473C119.674 40.0188 120.459 40.5966 121.754 40.5966C123.186 40.5966 124.273 39.4642 124.273 37.9158V30.8441H127.485V43H124.85L124.619 41.3361H124.457C123.602 42.4916 122.216 43.2773 120.482 43.2773Z" fill="currentColor"></path><path d="M129.74 43V30.8441H132.398L132.652 32.7391H132.814C133.276 31.5374 134.131 30.5437 135.633 30.5437C136.142 30.5437 136.627 30.6823 136.835 30.7748V33.6867H135.841C133.9 33.6867 132.952 34.7728 132.952 36.9221V43H129.74Z" fill="currentColor"></path><path d="M143.123 43.2773C139.102 43.2773 136.999 41.2899 136.999 36.9221C136.999 32.5774 139.125 30.5668 143.054 30.5668C146.752 30.5668 148.739 32.4618 148.739 36.8065V37.6385H140.258C140.327 39.7877 141.113 40.897 143.123 40.897C144.602 40.897 145.596 40.1575 145.596 38.7015H148.739C148.739 41.7752 146.451 43.2773 143.123 43.2773ZM140.304 35.6048H145.434C145.434 33.7329 144.51 32.9471 143.1 32.9471C141.321 32.9471 140.512 33.8253 140.304 35.6048Z" fill="currentColor"></path><path d="M155.325 43.2773C151.974 43.2773 149.825 41.7752 149.825 39.4642C149.825 39.3255 149.825 39.21 149.848 39.1406H152.945V39.3255C152.968 40.5041 154.147 40.9432 155.418 40.9432C156.481 40.9432 157.729 40.6659 157.729 39.7415C157.729 38.6553 156.203 38.4242 154.516 37.9851C152.436 37.4767 150.102 36.8527 150.102 34.2875C150.102 31.7454 152.46 30.5668 155.487 30.5668C158.329 30.5668 160.571 31.7916 160.571 33.9178C160.571 34.1257 160.571 34.3568 160.548 34.4031H157.474V34.2182C157.474 33.4093 156.666 32.9009 155.348 32.9009C154.1 32.9009 153.268 33.3169 153.268 33.9871C153.268 34.7959 154.355 35.0039 155.718 35.3737C157.937 35.9745 160.918 36.2288 160.918 39.3024C160.918 42.2605 158.468 43.2773 155.325 43.2773Z" fill="currentColor"></path></svg>